<svg width="12" height="13" viewBox="0 0 12 13" fill="none" xmlns="http://www.w3.org/2000/svg">
<path fill-rule="evenodd" clip-rule="evenodd" d="M0.788916 7.95017C0.788916 8.22631 1.01277 8.45017 1.28892 8.45017H10.7052C10.9813 8.45017 11.2052 8.22631 11.2052 7.95017V5.60874C11.2052 2.52277 8.86258 0 5.99703 0C3.13149 0 0.788916 2.52277 0.788916 5.60874V7.95017ZM5.52342 2.2096C5.52342 1.92799 5.7354 1.69971 5.99689 1.69971C7.715 1.69971 9.26461 3.05645 9.54144 4.84516C9.58443 5.12293 9.41018 5.38564 9.15225 5.43193C8.89432 5.47823 8.65038 5.29058 8.60739 5.01281C8.41075 3.74221 7.2774 2.71948 5.99689 2.71948C5.7354 2.71948 5.52342 2.4912 5.52342 2.2096ZM0.00554563 9.99573C0.00554563 9.71612 0.214533 9.48907 0.473465 9.48588L0.47876 9.4859H11.5263C11.5269 9.4859 11.5271 9.46581 11.5273 9.44572C11.5277 9.40559 11.5281 9.36549 11.5319 9.48587C11.7909 9.48895 12 9.71604 12 9.99573L11.9945 11.5575C11.9945 11.8391 11.7825 12.0673 11.521 12.0673H0.473465C0.211978 12.0673 0 11.8391 0 11.5575L0.00554563 9.99573ZM9.17351 6.93141C9.44045 6.93141 9.65684 6.71502 9.65684 6.44808C9.65684 6.18115 9.44045 5.96475 9.17351 5.96475C8.90658 5.96475 8.69019 6.18115 8.69019 6.44808C8.69019 6.71502 8.90658 6.93141 9.17351 6.93141Z" fill="#E60023"/>
</svg>
