<svg width="18" height="18" viewBox="0 0 18 18" fill="none" xmlns="http://www.w3.org/2000/svg">
<path fill-rule="evenodd" clip-rule="evenodd" d="M1.26035 1.26035C1.60748 0.913217 2.1703 0.913217 2.51743 1.26035L9 7.74292L15.4826 1.26035C15.8297 0.913217 16.3925 0.913217 16.7397 1.26035C17.0868 1.60748 17.0868 2.1703 16.7397 2.51743L10.2571 9L16.7397 15.4826C17.0868 15.8297 17.0868 16.3925 16.7397 16.7397C16.3925 17.0868 15.8297 17.0868 15.4826 16.7397L9 10.2571L2.51743 16.7397C2.1703 17.0868 1.60748 17.0868 1.26035 16.7397C0.913217 16.3925 0.913217 15.8297 1.26035 15.4826L7.74292 9L1.26035 2.51743C0.913217 2.1703 0.913217 1.60748 1.26035 1.26035Z" fill="#999999" stroke="#999999" stroke-width="0.5" stroke-linecap="round"/>
</svg>
