<svg width="28" height="28" viewBox="0 0 28 28" fill="none" xmlns="http://www.w3.org/2000/svg">
<path fill-rule="evenodd" clip-rule="evenodd" d="M4.66659 12.25C4.66659 8.06184 8.06176 4.66666 12.2499 4.66666C16.4381 4.66666 19.8333 8.06184 19.8333 12.25C19.8333 16.4382 16.4381 19.8333 12.2499 19.8333C8.06176 19.8333 4.66659 16.4382 4.66659 12.25ZM12.2499 2.33333C6.7731 2.33333 2.33325 6.77317 2.33325 12.25C2.33325 17.7268 6.7731 22.1667 12.2499 22.1667C14.5679 22.1667 16.7002 21.3713 18.3887 20.0387L23.675 25.325C24.1306 25.7806 24.8693 25.7806 25.3249 25.325C25.7805 24.8693 25.7805 24.1306 25.3249 23.675L20.0386 18.3888C21.3713 16.7003 22.1666 14.568 22.1666 12.25C22.1666 6.77317 17.7267 2.33333 12.2499 2.33333Z" fill="#212124"/>
</svg>
