<svg width="24" height="24" viewBox="0 0 24 24" fill="none" xmlns="http://www.w3.org/2000/svg">
<path fill-rule="evenodd" clip-rule="evenodd" d="M15.8491 4.07547C15.8491 1.82465 17.6737 0 19.9245 0C22.1753 0 24 1.82465 24 4.07547C24 6.32629 22.1753 8.15094 19.9245 8.15094C18.7542 8.15094 17.6991 7.65766 16.9558 6.86768C16.9184 6.89795 16.8771 6.92467 16.8322 6.9471L8.09384 11.3163C8.13139 11.5386 8.15094 11.767 8.15094 12C8.15094 12.233 8.1314 12.4613 8.09386 12.6836L16.8322 17.0528C16.8771 17.0752 16.9184 17.102 16.9559 17.1323C17.6992 16.3423 18.7543 15.8491 19.9245 15.8491C22.1753 15.8491 24 17.6737 24 19.9245C24 22.1753 22.1753 24 19.9245 24C17.6737 24 15.8491 22.1753 15.8491 19.9245C15.8491 19.3307 15.9761 18.7665 16.2044 18.2577L7.64077 13.9759C6.94533 15.2281 5.60936 16.0755 4.07547 16.0755C1.82465 16.0755 0 14.2508 0 12C0 9.74918 1.82465 7.92453 4.07547 7.92453C5.60932 7.92453 6.94526 8.77188 7.64072 10.024L16.2043 5.7422C15.976 5.2334 15.8491 4.66926 15.8491 4.07547ZM19.9245 1.35849C18.424 1.35849 17.2075 2.57492 17.2075 4.07547C17.2075 5.57602 18.424 6.79245 19.9245 6.79245C21.4251 6.79245 22.6415 5.57602 22.6415 4.07547C22.6415 2.57492 21.4251 1.35849 19.9245 1.35849ZM19.9245 17.2075C18.424 17.2075 17.2075 18.424 17.2075 19.9245C17.2075 21.4251 18.424 22.6415 19.9245 22.6415C21.4251 22.6415 22.6415 21.4251 22.6415 19.9245C22.6415 18.424 21.4251 17.2075 19.9245 17.2075ZM1.35849 12C1.35849 10.4995 2.57492 9.28302 4.07547 9.28302C5.57602 9.28302 6.79245 10.4995 6.79245 12C6.79245 13.5005 5.57602 14.717 4.07547 14.717C2.57492 14.717 1.35849 13.5005 1.35849 12Z" fill="#02C39A"/>
</svg>
