<svg width="20" height="18" viewBox="0 0 20 18" fill="none" xmlns="http://www.w3.org/2000/svg">
<path d="M10.7857 6.34123C10.3518 6.77515 9.64824 6.77515 9.21432 6.34123C8.78041 5.90731 8.78041 5.2038 9.21432 4.76988L13.6588 0.325437C14.0927 -0.108479 14.7962 -0.108479 15.2301 0.325437L19.6746 4.76988C20.1085 5.2038 20.1085 5.90732 19.6746 6.34123C19.2406 6.77515 18.5371 6.77515 18.1032 6.34123L15.5556 3.79357L15.5556 15.9261C15.5556 16.5398 15.0581 17.0372 14.4444 17.0372C13.8308 17.0372 13.3333 16.5398 13.3333 15.9261L13.3333 3.79357L10.7857 6.34123Z" fill="#999999"/>
<path d="M9.21432 10.696C9.64824 10.2621 10.3518 10.2621 10.7857 10.696C11.2196 11.1299 11.2196 11.8334 10.7857 12.2673L6.34123 16.7118C6.27892 16.7741 6.20997 16.8282 6.13605 16.8735C6.01962 16.945 5.889 16.9956 5.7494 17.0202C5.68583 17.0314 5.62099 17.0372 5.55555 17.0372C5.49012 17.0372 5.42527 17.0314 5.36171 17.0202C5.22211 16.9956 5.09149 16.945 4.97506 16.8735C4.90113 16.8282 4.83219 16.7741 4.76988 16.7118L0.325435 12.2673C-0.108481 11.8334 -0.108481 11.1299 0.325435 10.696C0.759349 10.2621 1.46287 10.2621 1.89678 10.696L4.44444 13.2436L4.44444 1.11111C4.44444 0.497461 4.9419 -6.5821e-07 5.55555 -6.31387e-07C6.1692 -6.04563e-07 6.66667 0.497461 6.66667 1.11111L6.66667 13.2436L9.21432 10.696Z" fill="#999999"/>
</svg>
